<?xml version="1.0" encoding="utf-8"?>
<!-- Generator: Adobe Illustrator 25.0.0, SVG Export Plug-In . SVG Version: 6.00 Build 0)  -->
<svg version="1.1" id="Layer_1" xmlns="http://www.w3.org/2000/svg" xmlns:xlink="http://www.w3.org/1999/xlink" x="0px" y="0px"
	 viewBox="0 0 151.57 37" style="enable-background:new 0 0 151.57 37;" xml:space="preserve">
<style type="text/css">
	.st0{fill-rule:evenodd;clip-rule:evenodd;fill:#27A9E3;}
	.st1{fill:#EAEEEF;}
</style>
<path class="st0" d="M13.72,26.41c1.41,0.24,6.86,1.19,10.02,1.89c0,0-7.85-1.1-9.18-1.23l0.29,0.9c0,0,10.58,1.93,15.96,2.8
	c-0.61,0.44-1.32,0.91-1.96,1.23c-0.09-0.42-0.18-0.9-0.24-1.31c0,0-0.83-0.17-0.98,0.52l0.87,1.95c0,0,0.31,0.12,0.57-0.14
	c0,0-0.07-0.3-0.16-0.72c0.76-0.37,1.61-0.95,2.29-1.45c0.63,0.1,1.17,0.18,1.6,0.25l8.57-1.32c0,0,3.16-13.43,2.74-19.65
	c0,0,2.93,17.41,4.73,18.55l6.43-0.75l-0.06-1.26c0,0-9.44-12.24-11.12-22.15c1.62,4.77,3.49,9.04,5.59,12.79
	c2.07,3.7,4.37,6.9,6.9,9.61c-0.05,0.58-0.1,1.15-0.1,1.15c0.18,0.22,0.57,0.1,0.57,0.1c0.22-0.35,0.77-1.99,0.77-1.99
	c-0.3-0.66-1.14-0.44-1.14-0.44c-0.01,0.11-0.04,0.47-0.07,0.88c-2.46-2.66-4.71-5.8-6.73-9.41c-2.18-3.9-4.11-8.36-5.78-13.37
	L44,3.85c0,0-10.73,1.07-16.43,0.25c0,0,0.14,8.98-14.04,22.1l-0.17,0.03l-0.04,0.01l-0.03,0.03c0,0-0.95,1.11-2.13,1.83
	c-0.07-0.23-0.15-0.48-0.22-0.77c0,0-0.76,0.21-0.94,0.64l1.06,1.85h0.54l0.04-0.45c0,0-0.18-0.35-0.41-1.05
	c1.11-0.67,2.04-1.68,2.21-1.87L13.72,26.41L13.72,26.41z M29.34,5.08c-0.69,7.36-4.71,13.94-12.06,19.76
	C23.71,19.6,27.98,13.02,29.34,5.08L29.34,5.08z M43.79,5.57c-1.26,8.49-4.78,16.24-10.57,23.26C38.3,22.2,41.82,14.45,43.79,5.57z"
	/>
<g>
	<g>
		<path class="st1" d="M70.93,16.68v4.01h-2.34V9.31h4.44c0.85,0,1.61,0.16,2.25,0.47s1.15,0.76,1.5,1.33
			c0.35,0.58,0.52,1.23,0.52,1.96c0,1.11-0.38,1.99-1.14,2.64c-0.76,0.64-1.82,0.96-3.17,0.96H70.93z M70.93,14.78h2.09
			c0.62,0,1.09-0.15,1.42-0.44c0.33-0.29,0.49-0.71,0.49-1.25c0-0.56-0.16-1.01-0.49-1.35s-0.78-0.52-1.36-0.53h-2.15V14.78z"/>
		<path class="st1" d="M85.33,18.35h-4.11l-0.78,2.34h-2.49l4.23-11.37h2.17l4.26,11.37h-2.49L85.33,18.35z M81.86,16.45h2.84
			l-1.43-4.26L81.86,16.45z"/>
		<path class="st1" d="M98.93,20.69h-2.34l-4.56-7.48v7.48h-2.34V9.31h2.34l4.57,7.5v-7.5h2.34V20.69z"/>
		<path class="st1" d="M107.39,18.35h-4.11l-0.78,2.34h-2.49l4.23-11.37h2.17l4.26,11.37h-2.49L107.39,18.35z M103.92,16.45h2.84
			l-1.43-4.26L103.92,16.45z"/>
		<path class="st1" d="M111.74,20.69V9.31h3.98c1.38,0,2.43,0.26,3.14,0.79c0.71,0.53,1.07,1.3,1.07,2.32
			c0,0.56-0.14,1.05-0.43,1.47c-0.29,0.42-0.68,0.74-1.2,0.93c0.58,0.15,1.04,0.44,1.38,0.88c0.34,0.44,0.5,0.98,0.5,1.62
			c0,1.09-0.35,1.92-1.05,2.48c-0.7,0.56-1.69,0.85-2.98,0.86H111.74z M114.08,14.08h1.73c1.18-0.02,1.77-0.49,1.77-1.41
			c0-0.52-0.15-0.89-0.45-1.11s-0.77-0.34-1.42-0.34h-1.64V14.08z M114.08,15.74v3.07h2.01c0.55,0,0.98-0.13,1.29-0.39
			c0.31-0.26,0.46-0.63,0.46-1.09c0-1.04-0.54-1.57-1.62-1.59H114.08z"/>
		<path class="st1" d="M128.37,18.35h-4.11l-0.78,2.34h-2.49l4.23-11.37h2.17l4.26,11.37h-2.49L128.37,18.35z M124.89,16.45h2.84
			l-1.43-4.26L124.89,16.45z"/>
		<path class="st1" d="M136.93,16.52h-1.87v4.16h-2.34V9.31h4.23c1.34,0,2.38,0.3,3.11,0.9c0.73,0.6,1.09,1.45,1.09,2.54
			c0,0.78-0.17,1.42-0.5,1.94c-0.34,0.52-0.84,0.93-1.53,1.24l2.46,4.65v0.11h-2.52L136.93,16.52z M135.06,14.63h1.89
			c0.59,0,1.04-0.15,1.37-0.45c0.32-0.3,0.48-0.71,0.48-1.24c0-0.54-0.15-0.96-0.46-1.27c-0.3-0.31-0.77-0.46-1.4-0.46h-1.88V14.63z
			"/>
	</g>
	<g>
		<path class="st1" d="M68.56,28.37v-4.27h1.2c0.37,0,0.7,0.08,0.98,0.25s0.51,0.4,0.66,0.7c0.16,0.3,0.23,0.65,0.24,1.04v0.27
			c0,0.4-0.08,0.75-0.23,1.06c-0.16,0.3-0.38,0.54-0.67,0.7s-0.62,0.25-1.01,0.25H68.56z M69.13,24.57v3.35h0.59
			c0.43,0,0.77-0.13,1.01-0.41c0.24-0.27,0.36-0.65,0.36-1.15v-0.25c0-0.48-0.11-0.86-0.34-1.13c-0.23-0.27-0.55-0.41-0.97-0.41
			H69.13z"/>
		<path class="st1" d="M75.37,28.37c-0.03-0.06-0.06-0.17-0.08-0.33c-0.25,0.26-0.55,0.39-0.9,0.39c-0.31,0-0.57-0.09-0.77-0.27
			s-0.3-0.4-0.3-0.67c0-0.33,0.12-0.59,0.38-0.77s0.6-0.27,1.06-0.27h0.53V26.2c0-0.19-0.06-0.34-0.17-0.45s-0.28-0.17-0.5-0.17
			c-0.19,0-0.36,0.05-0.49,0.15s-0.2,0.22-0.2,0.35h-0.54c0-0.16,0.06-0.31,0.17-0.46c0.11-0.15,0.26-0.26,0.46-0.35
			c0.19-0.09,0.4-0.13,0.63-0.13c0.37,0,0.65,0.09,0.86,0.27s0.31,0.43,0.32,0.75v1.46c0,0.29,0.04,0.52,0.11,0.69v0.05H75.37z
			 M74.47,27.96c0.17,0,0.33-0.04,0.48-0.13s0.26-0.2,0.33-0.34v-0.65h-0.42c-0.66,0-1,0.19-1,0.58c0,0.17,0.06,0.3,0.17,0.4
			S74.29,27.96,74.47,27.96z"/>
		<path class="st1" d="M78.41,24.44v0.77H79v0.42h-0.59v1.97c0,0.13,0.03,0.22,0.08,0.29s0.14,0.1,0.27,0.1
			c0.06,0,0.15-0.01,0.26-0.04v0.44c-0.14,0.04-0.28,0.06-0.42,0.06c-0.24,0-0.42-0.07-0.55-0.22s-0.18-0.35-0.18-0.62v-1.97h-0.58
			V25.2h0.58v-0.77H78.41z"/>
		<path class="st1" d="M82.58,28.37c-0.03-0.06-0.06-0.17-0.08-0.33c-0.25,0.26-0.55,0.39-0.9,0.39c-0.31,0-0.57-0.09-0.77-0.27
			s-0.3-0.4-0.3-0.67c0-0.33,0.12-0.59,0.38-0.77s0.6-0.27,1.06-0.27h0.53V26.2c0-0.19-0.06-0.34-0.17-0.45s-0.28-0.17-0.5-0.17
			c-0.19,0-0.36,0.05-0.49,0.15s-0.2,0.22-0.2,0.35H80.6c0-0.16,0.06-0.31,0.17-0.46c0.11-0.15,0.26-0.26,0.46-0.35
			c0.19-0.09,0.4-0.13,0.63-0.13c0.37,0,0.65,0.09,0.86,0.27s0.31,0.43,0.32,0.75v1.46c0,0.29,0.04,0.52,0.11,0.69v0.05H82.58z
			 M81.68,27.96c0.17,0,0.33-0.04,0.48-0.13s0.26-0.2,0.33-0.34v-0.65h-0.42c-0.66,0-1,0.19-1,0.58c0,0.17,0.06,0.3,0.17,0.4
			S81.51,27.96,81.68,27.96z"/>
		<path class="st1" d="M90.59,27.02c-0.05,0.45-0.22,0.8-0.5,1.04s-0.65,0.37-1.12,0.37c-0.5,0-0.91-0.18-1.21-0.54
			c-0.3-0.36-0.46-0.84-0.46-1.45v-0.41c0-0.4,0.07-0.75,0.21-1.05s0.34-0.53,0.6-0.69s0.56-0.24,0.9-0.24
			c0.45,0,0.82,0.13,1.09,0.38s0.43,0.6,0.48,1.05h-0.57c-0.05-0.34-0.16-0.59-0.32-0.74c-0.16-0.15-0.39-0.23-0.68-0.23
			c-0.36,0-0.64,0.13-0.84,0.4c-0.21,0.27-0.31,0.64-0.31,1.13v0.41c0,0.46,0.1,0.83,0.29,1.11c0.19,0.27,0.46,0.41,0.81,0.41
			c0.31,0,0.55-0.07,0.72-0.21c0.17-0.14,0.28-0.39,0.33-0.74H90.59z"/>
		<path class="st1" d="M92.12,26.76c0-0.31,0.06-0.59,0.18-0.84s0.29-0.44,0.51-0.57s0.47-0.2,0.75-0.2c0.43,0,0.78,0.15,1.05,0.45
			c0.27,0.3,0.4,0.7,0.4,1.19v0.04c0,0.31-0.06,0.58-0.18,0.83s-0.29,0.44-0.51,0.57c-0.22,0.14-0.47,0.21-0.76,0.21
			c-0.43,0-0.78-0.15-1.04-0.45c-0.27-0.3-0.4-0.69-0.4-1.19V26.76z M92.67,26.82c0,0.35,0.08,0.63,0.25,0.85
			c0.16,0.21,0.38,0.32,0.65,0.32c0.28,0,0.49-0.11,0.66-0.32s0.24-0.52,0.24-0.91c0-0.35-0.08-0.63-0.25-0.85
			c-0.17-0.22-0.38-0.32-0.66-0.32c-0.27,0-0.48,0.11-0.65,0.32S92.67,26.43,92.67,26.82z"/>
		<path class="st1" d="M97.27,28.37h-0.54v-4.5h0.54V28.37z"/>
		<path class="st1" d="M99.73,28.37h-0.54v-4.5h0.54V28.37z"/>
		<path class="st1" d="M102.91,28.43c-0.43,0-0.78-0.14-1.05-0.42s-0.4-0.66-0.4-1.13v-0.1c0-0.31,0.06-0.6,0.18-0.84
			c0.12-0.25,0.29-0.44,0.5-0.58c0.21-0.14,0.45-0.21,0.7-0.21c0.41,0,0.73,0.14,0.96,0.41s0.34,0.66,0.34,1.17v0.23h-2.15
			c0.01,0.31,0.1,0.56,0.27,0.76s0.4,0.29,0.67,0.29c0.19,0,0.35-0.04,0.49-0.12s0.25-0.18,0.35-0.31l0.33,0.26
			C103.83,28.23,103.44,28.43,102.91,28.43z M102.84,25.59c-0.22,0-0.4,0.08-0.55,0.24s-0.24,0.38-0.28,0.67h1.59v-0.04
			c-0.02-0.28-0.09-0.49-0.22-0.64S103.06,25.59,102.84,25.59z"/>
		<path class="st1" d="M107.04,27.99c0.19,0,0.36-0.06,0.51-0.18s0.22-0.26,0.24-0.44h0.51c-0.01,0.18-0.07,0.35-0.19,0.52
			s-0.27,0.29-0.46,0.39c-0.19,0.1-0.4,0.15-0.61,0.15c-0.43,0-0.78-0.14-1.03-0.43c-0.26-0.29-0.38-0.68-0.38-1.18v-0.09
			c0-0.31,0.06-0.58,0.17-0.82s0.28-0.43,0.49-0.56c0.21-0.13,0.46-0.2,0.75-0.2c0.36,0,0.65,0.11,0.89,0.32s0.36,0.49,0.38,0.83
			h-0.51c-0.02-0.21-0.09-0.37-0.23-0.51s-0.31-0.2-0.52-0.2c-0.28,0-0.49,0.1-0.64,0.3c-0.15,0.2-0.23,0.49-0.23,0.86v0.1
			c0,0.37,0.08,0.65,0.23,0.84S106.76,27.99,107.04,27.99z"/>
		<path class="st1" d="M110.64,24.44v0.77h0.59v0.42h-0.59v1.97c0,0.13,0.03,0.22,0.08,0.29s0.14,0.1,0.27,0.1
			c0.06,0,0.15-0.01,0.26-0.04v0.44c-0.14,0.04-0.28,0.06-0.42,0.06c-0.24,0-0.42-0.07-0.55-0.22s-0.18-0.35-0.18-0.62v-1.97h-0.58
			V25.2h0.58v-0.77H110.64z"/>
		<path class="st1" d="M112.86,24.36c0-0.09,0.03-0.16,0.08-0.22c0.05-0.06,0.13-0.09,0.24-0.09s0.19,0.03,0.24,0.09
			s0.08,0.13,0.08,0.22s-0.03,0.16-0.08,0.22s-0.13,0.09-0.24,0.09s-0.19-0.03-0.24-0.09C112.89,24.52,112.86,24.45,112.86,24.36z
			 M113.45,28.37h-0.54V25.2h0.54V28.37z"/>
		<path class="st1" d="M115.17,26.76c0-0.31,0.06-0.59,0.18-0.84s0.29-0.44,0.51-0.57s0.47-0.2,0.75-0.2c0.43,0,0.78,0.15,1.05,0.45
			c0.27,0.3,0.4,0.7,0.4,1.19v0.04c0,0.31-0.06,0.58-0.18,0.83s-0.29,0.44-0.51,0.57c-0.22,0.14-0.47,0.21-0.76,0.21
			c-0.43,0-0.78-0.15-1.04-0.45c-0.27-0.3-0.4-0.69-0.4-1.19V26.76z M115.71,26.82c0,0.35,0.08,0.63,0.25,0.85
			c0.16,0.21,0.38,0.32,0.65,0.32c0.28,0,0.49-0.11,0.66-0.32s0.24-0.52,0.24-0.91c0-0.35-0.08-0.63-0.25-0.85
			c-0.17-0.22-0.38-0.32-0.66-0.32c-0.27,0-0.48,0.11-0.65,0.32S115.71,26.43,115.71,26.82z"/>
		<path class="st1" d="M120.24,25.2l0.02,0.4c0.24-0.3,0.56-0.46,0.95-0.46c0.67,0,1.01,0.38,1.01,1.13v2.09h-0.54v-2.1
			c0-0.23-0.05-0.4-0.16-0.51c-0.1-0.11-0.26-0.16-0.48-0.16c-0.18,0-0.33,0.05-0.46,0.14s-0.24,0.22-0.31,0.37v2.26h-0.54V25.2
			H120.24z"/>
		<path class="st1" d="M129.55,24.57h-1.37v3.81h-0.56v-3.81h-1.37v-0.46h3.3V24.57z"/>
		<path class="st1" d="M130.95,26.76c0-0.31,0.06-0.59,0.18-0.84s0.29-0.44,0.51-0.57s0.47-0.2,0.75-0.2c0.43,0,0.78,0.15,1.05,0.45
			c0.27,0.3,0.4,0.7,0.4,1.19v0.04c0,0.31-0.06,0.58-0.18,0.83s-0.29,0.44-0.51,0.57c-0.22,0.14-0.47,0.21-0.76,0.21
			c-0.43,0-0.78-0.15-1.04-0.45c-0.27-0.3-0.4-0.69-0.4-1.19V26.76z M131.49,26.82c0,0.35,0.08,0.63,0.25,0.85
			c0.16,0.21,0.38,0.32,0.65,0.32c0.28,0,0.49-0.11,0.66-0.32s0.24-0.52,0.24-0.91c0-0.35-0.08-0.63-0.25-0.85
			c-0.17-0.22-0.38-0.32-0.66-0.32c-0.27,0-0.48,0.11-0.65,0.32S131.49,26.43,131.49,26.82z"/>
		<path class="st1" d="M135.37,26.76c0-0.31,0.06-0.59,0.18-0.84s0.29-0.44,0.51-0.57s0.47-0.2,0.75-0.2c0.43,0,0.78,0.15,1.05,0.45
			c0.27,0.3,0.4,0.7,0.4,1.19v0.04c0,0.31-0.06,0.58-0.18,0.83s-0.29,0.44-0.51,0.57c-0.22,0.14-0.47,0.21-0.76,0.21
			c-0.43,0-0.78-0.15-1.04-0.45c-0.27-0.3-0.4-0.69-0.4-1.19V26.76z M135.91,26.82c0,0.35,0.08,0.63,0.25,0.85
			c0.16,0.21,0.38,0.32,0.65,0.32c0.28,0,0.49-0.11,0.66-0.32s0.24-0.52,0.24-0.91c0-0.35-0.08-0.63-0.25-0.85
			c-0.17-0.22-0.38-0.32-0.66-0.32c-0.27,0-0.48,0.11-0.65,0.32S135.91,26.43,135.91,26.82z"/>
		<path class="st1" d="M140.52,28.37h-0.54v-4.5h0.54V28.37z"/>
	</g>
</g>
</svg>
